<?xml version="1.0" encoding="UTF-8" standalone="no"?>
<svg
   xmlns:dc="http://purl.org/dc/elements/1.1/"
   xmlns:cc="http://creativecommons.org/ns#"
   xmlns:rdf="http://www.w3.org/1999/02/22-rdf-syntax-ns#"
   xmlns:svg="http://www.w3.org/2000/svg"
   xmlns="http://www.w3.org/2000/svg"
   xmlns:sodipodi="http://sodipodi.sourceforge.net/DTD/sodipodi-0.dtd"
   xmlns:inkscape="http://www.inkscape.org/namespaces/inkscape"
   width="640"
   height="480"
   id="svg3336"
   version="1.1"
   inkscape:version="0.91 r13725"
   sodipodi:docname="LOGO3.svg">
  <metadata
     id="metadata3353">
    <rdf:RDF>
      <cc:Work
         rdf:about="">
        <dc:format>image/svg+xml</dc:format>
        <dc:type
           rdf:resource="http://purl.org/dc/dcmitype/StillImage" />
        <dc:title></dc:title>
      </cc:Work>
    </rdf:RDF>
  </metadata>
  <defs
     id="defs3351" />
  <sodipodi:namedview
     pagecolor="#ffffff"
     bordercolor="#666666"
     borderopacity="1"
     objecttolerance="10"
     gridtolerance="10"
     guidetolerance="10"
     inkscape:pageopacity="0"
     inkscape:pageshadow="2"
     inkscape:window-width="1600"
     inkscape:window-height="837"
     id="namedview3349"
     showgrid="false"
     inkscape:snap-bbox="false"
     inkscape:zoom="1.3916667"
     inkscape:cx="215.4491"
     inkscape:cy="261.55689"
     inkscape:window-x="-8"
     inkscape:window-y="-8"
     inkscape:window-maximized="1"
     inkscape:current-layer="svg3336" />
  <!-- Created with SVG-edit - http://svg-edit.googlecode.com/ -->
  <g
     id="g3338"
     transform="matrix(0.62672884,0,0,0.77651108,193.489,61.487536)"
     clip-path="none">
    <title
       id="title3340">JLER</title>
    <path
       id="svg_6"
       d="m 122.60153,160.12563 319.88236,0 0,0 c 41.90549,0 75.87653,25.74364 75.87653,57.50002 0,31.75637 -33.97105,57.5 -75.87653,57.5 l -319.88235,0 0,0 c -41.905456,0 -75.87654,-25.74363 -75.87654,-57.5 0,-31.75639 33.971084,-57.50002 75.87654,-57.50002 z"
       stroke-linecap="null"
       stroke-linejoin="null"
       inkscape:connector-curvature="0"
       style="fill:#bfbfbf;stroke:#000000;stroke-width:0;stroke-dasharray:none" />
    <path
       stroke-linejoin="null"
       stroke-linecap="null"
       d="m 247.85155,138.78648 c 5.15924,-4.02099 16.40429,2.48624 16.00106,-8.00052 5.11048,-3.60113 9.04651,-11.49322 0.78314,-14.13514 -4.70884,-2.25879 -6.91901,4.99557 -8.55786,5.45299 -3.40097,-4.73895 -1.48201,-12.46357 -0.14339,-17.47033 4.27742,-2.66112 11.29106,-5.69801 6.34139,-11.62737 -1.02552,-6.472 -1.65328,-14.02166 -7.7664,-17.93365 -4.56241,-2.74032 -11.00461,-5.3528 -8.76565,-11.78581 -2.94551,-4.44284 -6.35625,-10.51661 -4.40093,-16.00214 4.45959,-0.79031 3.93589,10.48045 4.78604,8.09876 -1.6751,-3.62407 4.00397,-11.96835 3.67904,-4.27482 -0.3428,2.75998 -0.12079,8.35218 1.39549,2.81326 4.11054,-6.10653 0.079,10.58557 4.11373,3.96137 2.84633,-0.92137 1.97904,4.07932 4.72611,1.60676 3.00741,2.29754 5.20979,2.81124 5.19958,6.62942 4.00754,1.44875 6.9973,3.84521 6.20336,7.65427 7.82111,-1.88711 1.13464,7.86731 6.70107,10.58744 3.00052,4.75676 4.34931,9.52238 4.13308,15.17139 6.17599,-1.70679 10.24915,-8.73103 16.62758,-10.91659 7.16118,-3.31873 9.72694,-11.56925 11.28226,-18.69579 0.6944,-3.43852 5.05331,-3.27017 3.71432,0.59235 5.016,-5.40589 2.92246,-13.27636 4.33896,-19.85031 0.45416,-3.67699 -1.01981,-11.78286 2.07617,-12.5398 4.61938,4.1464 -1.02601,13.31313 3.47688,16.06463 3.17427,-5.92283 2.04914,-13.00712 2.22104,-19.47145 -0.0776,-3.73135 3.62487,-6.20148 3.44588,-0.87532 1.55272,4.59738 -0.17706,14.08867 0.72131,15.76179 3.52956,-5.45715 2.7751,-12.80622 6.51745,-17.93253 5.14888,1.9314 -1.45927,10.5989 -1.29208,15.1904 0.69019,3.52612 5.7366,-10.32643 5.9907,-2.68911 -2.32501,2.01852 -1.93595,7.5763 0.66186,3.09951 1.00343,-3.67644 7.86712,-2.44371 3.43757,0.91186 -3.28926,2.85688 5.77092,2.65602 1.80453,5.79684 2.6463,4.37058 -4.55365,6.95519 -0.43383,10.10549 -0.23695,1.2688 3.28824,3.73877 1.73003,6.78534 1.55341,2.80553 -5.5305,4.62703 -0.90815,6.54649 0.26737,6.54268 -8.00126,11.05443 -6.18939,17.16278 -0.5341,7.36138 -6.08841,13.53894 -12.03257,17.42968 -5.49141,1.04131 -9.75102,3.24681 -14.47114,6.28988 -3.10807,0.0534 -4.21146,0.0389 -5.8368,2.28212 -2.5582,-1.98453 -6.77653,-4.98353 -6.05355,1.02662 1.09482,7.46385 10.56414,8.20584 15.6007,12.17653 5.37181,1.89608 12.39766,8.19828 6.58016,13.1319 -0.56286,7.0131 -9.89519,2.81253 -12.31892,5.23875 -3.47749,0.51986 -3.11519,2.9745 -6.20464,0.0475 -3.00895,4.03261 -9.73968,-0.33235 -12.94875,-2.08131 -5.20525,2.48364 -7.58505,-9.99988 -8.54218,-1.26155 -2.11452,5.93947 -10.70256,-0.44375 -10.66033,7.1505 -3.92914,-0.80733 -4.11406,5.3337 -8.32831,4.71681 2.6506,-1.23071 4.45347,-8.26828 -0.30472,-4.87553 -3.89141,-2.95606 -1.6443,7.27425 -4.85302,1.94758 -0.70582,-6.91549 7.14817,-7.05196 11.57399,-8.2943 1.58947,-4.01924 3.60183,-9.30297 3.18017,-13.17906 -4.18346,1.68159 -7.85214,5.28654 -12.73287,5.59273 0.30383,3.65301 -2.52644,9.55564 -6.87807,6.15686 6.25621,2.43914 3.49188,-10.95559 -0.28886,-4.33647 -1.48205,4.36712 -1.29842,-6.30933 -5.58487,-3.2016 -2.24665,1.63403 -0.72131,5.41782 -2.95324,1.02861 -0.43409,-0.88491 -0.50205,-2.14153 0.40587,-2.77872 l 0,0 z"
       id="svg_13"
       inkscape:connector-curvature="0"
       style="fill:#000000;stroke:#000000;stroke-width:0;stroke-dasharray:none" />
    <text
       x="384.90417"
       y="247.84239"
       id="svg_1"
       font-size="24"
       xml:space="preserve"
       transform="matrix(4.7264334,0,0,3.1663459,-1533.529,-541.92397)"
       style="font-size:24px;font-family:Monospace;text-anchor:middle;fill:#00007f;stroke:#000000;stroke-width:0">JLER</text>
    <path
       stroke-linejoin="null"
       stroke-linecap="null"
       d="m 98.89461,257.63369 c 0.12453,-2.8039 5.77379,-1.42161 2.66374,-4.15329 1.0374,-3.36965 4.25863,-5.61377 6.20563,-8.50433 1.49257,-2.4608 4.85474,-5.42635 3.22898,-8.46897 -2.9857,-1.59461 -2.13842,-5.14017 1.51348,-4.36148 2.34832,-2.16588 2.51003,-5.78376 3.30466,-8.73277 0.72128,-3.52961 1.16265,-7.12317 1.04754,-10.72936 -4.28065,0.0104 -8.64176,-0.19465 -12.77027,-1.35561 0.79976,-3.19816 5.95458,-2.51085 8.06661,-4.47556 -1.96245,-1.76492 3.96741,-1.58843 2.41579,-4.37991 -0.10647,-3.19696 -2.6251,-4.12206 -4.64283,-6.453 -2.69556,-3.64252 1.53042,-7.28206 3.87752,-9.74462 2.61619,-2.67644 5.60835,-5.52805 6.40911,-9.31355 -1.07737,-0.88529 -3.53844,-2.15286 -1.02718,-3.36307 3.42977,-0.58144 7.08876,-0.65228 10.45009,0.30157 2.23108,2.17382 -3.40536,2.29238 -0.98023,5.03325 2.87539,3.44569 -1.00129,5.22394 -3.29021,7.21569 -1.3323,1.68298 -5.30884,3.90243 -4.62467,5.64688 3.89323,-0.13574 6.1617,-3.90467 8.9387,-6.13599 3.04587,-3.90676 5.99254,2.40647 7.94027,4.55186 2.39948,3.25136 0.74405,7.62134 -2.8702,9.01769 -1.79253,1.84599 -2.98271,7.10421 1.30636,6.32139 2.4908,0.90539 -2.43469,1.00293 0.39278,1.83991 1.87901,0.72154 9.2076,2.37069 5.17041,4.58256 -3.42656,0.77458 -6.96609,0.74261 -10.44695,0.42982 -0.21466,5.2876 0.54085,10.55434 2.09922,15.61206 0.3868,1.43894 0.7736,2.87787 1.16041,4.3168 1.8614,-0.0368 5.70461,-0.4438 3.92849,2.62117 -3.73632,2.06063 -1.44969,6.39716 0.6215,8.86401 2.56733,3.24594 6.39611,6.28466 6.5601,10.72867 1.0268,0.61198 4.44406,2.29322 3.4556,3.60944 -16.35755,-0.0838 -32.7245,0.24233 -49.07372,-0.35692 l -0.56773,-0.0521 -0.46299,-0.11228 0,0 0,2e-5 -1e-5,0 z"
       id="svg_2"
       inkscape:connector-curvature="0"
       style="fill:#000000;stroke:#000000;stroke-width:0;stroke-dasharray:none" />
    <path
       stroke-linejoin="null"
       stroke-linecap="null"
       d="m 417.85906,256.46374 c 0.12453,-2.8039 5.77379,-1.42162 2.66375,-4.1533 1.0374,-3.36965 4.25862,-5.61377 6.20562,-8.50433 1.49258,-2.4608 4.85474,-5.42635 3.22898,-8.46897 -2.9857,-1.59461 -2.13842,-5.14017 1.51349,-4.36147 2.34832,-2.16588 2.51002,-5.78376 3.30466,-8.73277 0.72127,-3.52961 1.16265,-7.12317 1.04754,-10.72936 -4.28066,0.0104 -8.64177,-0.19466 -12.77027,-1.35561 0.79976,-3.19815 5.95458,-2.51085 8.06661,-4.47556 -1.96245,-1.76492 3.96742,-1.58843 2.41579,-4.37991 -0.10647,-3.19695 -2.6251,-4.12205 -4.64283,-6.45299 -2.69556,-3.64252 1.53042,-7.28206 3.87752,-9.74463 2.61619,-2.67643 5.60834,-5.52805 6.40911,-9.31355 -1.07738,-0.88529 -3.53845,-2.15286 -1.02718,-3.36307 3.42976,-0.58143 7.08875,-0.65227 10.45008,0.30158 2.23108,2.17382 -3.40536,2.29237 -0.98023,5.03324 2.87539,3.4457 -1.00129,5.22395 -3.29021,7.21569 -1.3323,1.68299 -5.30883,3.90243 -4.62467,5.64688 3.89323,-0.13573 6.16169,-3.90467 8.9387,-6.13599 3.04587,-3.90676 5.99254,2.40647 7.94027,4.55186 2.39948,3.25137 0.74406,7.62134 -2.8702,9.01769 -1.79253,1.84599 -2.98271,7.10421 1.30636,6.32139 2.4908,0.90539 -2.4347,1.00293 0.39278,1.83991 1.87901,0.72154 9.2076,2.37068 5.17041,4.58256 -3.42655,0.77458 -6.96609,0.74261 -10.44695,0.42982 -0.21466,5.2876 0.54085,10.55434 2.09922,15.61206 0.3868,1.43894 0.7736,2.87787 1.1604,4.31679 1.8614,-0.0368 5.70462,-0.4438 3.9285,2.62118 -3.73632,2.06063 -1.4497,6.39716 0.62149,8.86401 2.56733,3.24593 6.39611,6.28465 6.56011,10.72867 1.0268,0.61198 4.44405,2.29322 3.45559,3.60944 -16.35755,-0.0838 -32.7245,0.24233 -49.07371,-0.35692 l -0.56774,-0.0521 -0.46299,-0.11228 0,0 0,2e-5 z"
       id="svg_5"
       inkscape:connector-curvature="0"
       style="fill:#000000;stroke:#000000;stroke-width:0;stroke-dasharray:none" />
  </g>
</svg>
