<?xml version="1.0"?>
<svg width="640" height="480" xmlns="http://www.w3.org/2000/svg" xmlns:svg="http://www.w3.org/2000/svg">
 <!-- Created with SVG-edit - http://svg-edit.googlecode.com/ -->

 <g>
  <title>Layer 1</title>
  <line id="svg_2" y2="284.555553" x2="355.999996" y1="284.555553" x1="251.999996" stroke-width="5" stroke="#000000" fill="none"/>
  <line id="svg_3" y2="250.055553" x2="355.999996" y1="250.055553" x1="251.999996" stroke-width="5" stroke="#000000" fill="none"/>
  <path stroke="#000000" id="svg_5" d="m282.19433,227.750666c3.479573,-2.381668 11.063627,1.472615 10.791675,-4.738774c3.446682,-2.132974 6.101279,-6.807522 0.528178,-8.37235c-3.175809,-1.3379 -4.666423,2.958912 -5.771725,3.229846c-2.293729,-2.806917 -0.999515,-7.382265 -0.096703,-10.347812c2.884843,-1.576198 7.615084,-3.374972 4.276852,-6.886977c-0.691646,-3.83342 -1.115031,-8.30514 -5.237926,-10.622242c-3.077053,-1.623112 -7.421896,-3.170505 -5.911859,-6.980825c-1.986559,-2.63153 -4.286879,-6.229071 -2.968146,-9.478194c3.007708,-0.468103 2.654502,6.207652 3.227875,4.796958c-1.129744,-2.146563 2.700417,-7.088943 2.481273,-2.532005c-0.231199,1.634754 -0.081468,4.947057 0.941167,1.666313c2.772292,-3.616943 0.053272,6.269915 2.774444,2.346351c1.919662,-0.545735 1.334731,2.416213 3.187452,0.951699c2.028297,1.36085 3.513662,1.665117 3.506778,3.926651c2.702823,0.858108 4.719217,2.277551 4.183761,4.533685c5.274825,-1.117747 0.765237,4.659871 4.519435,6.271026c2.023655,2.817463 2.933323,5.640179 2.787491,8.986131c4.165303,-1.010948 6.912383,-5.17146 11.214219,-6.46598c4.829749,-1.965711 6.560188,-6.852559 7.609145,-11.073661c0.468332,-2.036663 3.408132,-1.936947 2.505069,0.35085c3.382967,-3.201947 1.971008,-7.86369 2.926349,-11.75749c0.306298,-2.17791 -0.687797,-6.979079 1.400239,-7.427421c3.115468,2.455943 -0.691976,7.885472 2.344925,9.515207c2.140843,-3.508138 1.382014,-7.704221 1.497951,-11.533096c-0.052329,-2.210103 2.444734,-3.673181 2.324019,-0.518457c1.047208,2.723067 -0.119414,8.344829 0.486475,9.335834c2.380462,-3.232314 1.871627,-7.585225 4.3956,-10.621577c3.472584,1.143981 -0.984189,6.277809 -0.871425,8.99739c0.465486,2.088545 3.868958,-6.116425 4.040333,-1.592779c-1.568069,1.195581 -1.305668,4.487498 0.446385,1.83586c0.676747,-2.177583 5.305858,-1.447425 2.318416,0.540102c-2.218392,1.692156 3.892109,1.57318 1.217037,3.433513c1.784759,2.588728 -3.07114,4.119617 -0.292587,5.985559c-0.159811,0.751521 2.217699,2.214503 1.16679,4.019009c1.047677,1.661739 -3.729959,2.740629 -0.612486,3.877537c0.180322,3.875279 -5.396333,6.547627 -4.174345,10.165647c-0.360213,4.360201 -4.106236,8.019221 -8.115181,10.323736c-3.703594,0.616778 -6.576429,1.923111 -9.759838,3.725545c-2.096191,0.031644 -2.840359,0.023027 -3.936545,1.351715c-1.725338,-1.175452 -4.570324,-2.951779 -4.082723,0.608075c0.738386,4.4209 7.124823,4.860384 10.521657,7.212254c3.622937,1.123065 8.361412,4.855903 4.43789,7.778126c-0.379612,4.153916 -6.673663,1.665886 -8.308314,3.10295c-2.345338,0.307921 -2.100989,1.761823 -4.184625,0.028145c-2.029335,2.388544 -6.568779,-0.196856 -8.733082,-1.232781c-3.510603,1.471084 -5.115621,-5.923006 -5.761149,-0.747224c-1.426106,3.517995 -7.218176,-0.262838 -7.189697,4.235295c-2.649949,-0.478188 -2.77466,3.159194 -5.616901,2.793804c1.787655,-0.728957 3.003579,-4.897363 -0.205516,-2.887812c-2.624501,-1.750899 -1.108967,4.308596 -3.27304,1.153567c-0.476032,-4.0961 4.82097,-4.176933 7.805896,-4.912776c1.071998,-2.380632 2.429201,-5.510222 2.144818,-7.806061c-2.821471,0.996016 -5.295757,3.131256 -8.587489,3.312619c0.204914,2.163704 -1.703918,5.659876 -4.638808,3.646756c4.219407,1.444718 2.355041,-6.48908 -0.194822,-2.568526c-0.999542,2.586679 -0.875695,-3.737065 -3.766628,-1.896336c-1.515215,0.96785 -0.486475,3.209017 -1.99177,0.609256c-0.292764,-0.52414 -0.338596,-1.268442 0.273734,-1.64586l0,0.000005z" stroke-linecap="null" stroke-linejoin="null" stroke-dasharray="null" stroke-width="5" fill="#ffffff"/>
  <text xml:space="preserve" text-anchor="middle" font-family="serif" font-size="24" id="svg_10" y="274.555553" x="308.444441" stroke-linecap="null" stroke-linejoin="null" stroke-dasharray="null" stroke="#000000" fill="#0000ff">JLER</text>
  <path id="svg_17" d="m247.394048,283.882909c0.052089,-1.172872 2.415179,-0.594662 1.114246,-1.737325c0.433946,-1.409529 1.781387,-2.348245 2.595818,-3.557368c0.624344,-1.029354 2.030741,-2.269846 1.350685,-3.542575c-1.248921,-0.667028 -0.894502,-2.150136 0.633091,-1.824408c0.982306,-0.905988 1.049946,-2.419351 1.382342,-3.652922c0.30171,-1.476437 0.486338,-2.979625 0.438186,-4.488099c-1.7906,0.004371 -3.614855,-0.081424 -5.341811,-0.567051c0.334539,-1.337791 2.490805,-1.05029 3.374269,-1.872129c-0.820895,-0.738268 1.659572,-0.664441 1.010525,-1.832119c-0.044538,-1.33729 -1.09808,-1.724259 -1.942099,-2.699293c-1.127554,-1.523668 0.640176,-3.04609 1.621969,-4.076183c1.094356,-1.119556 2.345975,-2.312388 2.680935,-3.895865c-0.450666,-0.370317 -1.480133,-0.900541 -0.42967,-1.406773c1.434674,-0.243216 2.965232,-0.272848 4.371278,0.126148c0.933262,0.909312 -1.424464,0.958903 -0.410031,2.105411c1.202777,1.441336 -0.41884,2.185179 -1.376298,3.018328c-0.557303,0.703992 -2.220689,1.632387 -1.934505,2.362093c1.628542,-0.056778 2.577443,-1.633327 3.739065,-2.56669c1.27409,-1.634201 2.506683,1.006629 3.321422,1.904046c1.003704,1.360048 0.311238,3.188012 -1.200607,3.772105c-0.749817,0.772177 -1.247669,2.971697 0.546451,2.644242c1.041904,0.378724 -1.018434,0.419528 0.1643,0.769635c0.78599,0.301821 3.851545,0.991659 2.162787,1.916889c-1.433331,0.324006 -2.91392,0.310636 -4.369967,0.179793c-0.089792,2.211808 0.226239,4.414889 0.878103,6.530534c0.161799,0.601909 0.323599,1.203817 0.485399,1.805719c0.778625,-0.015402 2.386243,-0.185644 1.643291,1.096439c-1.562904,0.861963 -0.606407,2.675937 0.259973,3.707821c1.073915,1.357777 2.675495,2.628877 2.744095,4.487811c0.429513,0.255993 1.858952,0.959256 1.445478,1.509833c-6.842374,-0.035067 -13.688679,0.101365 -20.527568,-0.149302l-0.237483,-0.021785l-0.193668,-0.046967l0,0l-0.000001,0.000007z" stroke-linecap="null" stroke-linejoin="null" stroke-dasharray="null" stroke-width="5" stroke="#000000" fill="#ffffff"/>
  <path id="svg_19" d="m348.594638,283.775687c0.05209,-1.17287 2.41518,-0.59466 1.11424,-1.73732c0.43395,-1.40953 1.78139,-2.34825 2.59582,-3.55737c0.62435,-1.02936 2.03074,-2.26985 1.35069,-3.54258c-1.24893,-0.66703 -0.89451,-2.15013 0.63309,-1.82441c0.9823,-0.90598 1.04994,-2.41935 1.38234,-3.65292c0.30171,-1.47644 0.48634,-2.97962 0.43819,-4.4881c-1.7906,0.00437 -3.61486,-0.08142 -5.34182,-0.56705c0.33454,-1.33779 2.49081,-1.05029 3.37427,-1.87213c-0.82089,-0.73827 1.65958,-0.66444 1.01053,-1.83212c-0.04454,-1.33729 -1.09808,-1.72426 -1.9421,-2.69929c-1.12755,-1.52367 0.64018,-3.04609 1.62197,-4.07618c1.09435,-1.11956 2.34597,-2.31239 2.68093,-3.89587c-0.45066,-0.37031 -1.48013,-0.90054 -0.42967,-1.40677c1.43468,-0.24322 2.96524,-0.27285 4.37128,0.12615c0.93326,0.90931 -1.42446,0.9589 -0.41003,2.10541c1.20278,1.44133 -0.41884,2.18518 -1.3763,3.01833c-0.5573,0.70399 -2.22069,1.63238 -1.9345,2.36209c1.62854,-0.05678 2.57744,-1.63333 3.73906,-2.56669c1.27409,-1.6342 2.50669,1.00663 3.32142,1.90405c1.00371,1.36004 0.31124,3.18801 -1.2006,3.7721c-0.74982,0.77218 -1.24767,2.9717 0.54645,2.64424c1.0419,0.37873 -1.01844,0.41953 0.1643,0.76964c0.78599,0.30182 3.85154,0.99166 2.16279,1.91689c-1.43333,0.324 -2.91392,0.31063 -4.36997,0.17979c-0.08979,2.21181 0.22624,4.41489 0.8781,6.53053c0.1618,0.60191 0.3236,1.20382 0.4854,1.80572c0.77863,-0.0154 2.38624,-0.18564 1.64329,1.09644c-1.5629,0.86196 -0.60641,2.67594 0.25998,3.70782c1.07391,1.35778 2.67549,2.62888 2.74409,4.48781c0.42951,0.256 1.85895,0.95926 1.44548,1.50984c-6.84238,-0.03507 -13.68868,0.10136 -20.52757,-0.1493l-0.23748,-0.02179l-0.19367,-0.04697l0,0l0,0.00001z" stroke-linecap="null" stroke-linejoin="null" stroke-dasharray="null" stroke-width="5" stroke="#000000" fill="#ffffff"/>
 </g>
</svg>